# xmcd
#
# Track frame offsets: 
#        150
#        11441
#        22207
#        31672
#        44787
#        55273
#        65653
#        85469
#        96300
#        107899
#        119510
#        130842
#        142958
#        155652
#        165907
#        181275
#
# Disc length: 2556 seconds
#
# Revision: 0
# Processed by: cddbd v1.5.2PL0 Copyright (c) Steve Scherf et al.
# Submitted via: ExactAudioCopy v1.0b3
#
DISCID=de09fa10
DTITLE=Various Artist - The Soul Of Detroit: Lupine Records (Relic 70
DTITLE=34)
DYEAR=1900
DGENRE=Soul
TTITLE0=Mack Rice - Baby I'm Coming Home
TTITLE1=The Conquerors - Since You've Been Gone
TTITLE2=The Rivals - Love Me
TTITLE3=Charles Amos - Thunder In My Heart
TTITLE4=Gene Martin and The Primittes - Lonely Nights
TTITLE5=Eddie Floyd - Lonely
TTITLE6=Bettye Lavette - You Killed The Love
TTITLE7=Benny Mccain - I Don't Want No Party Time Love
TTITLE8=Joe Stubbs - Hey Hey
TTITLE9=The Majestics - Hard Times
TTITLE10=The Conquerors - Lovers Celebration
TTITLE11=Eddie Floyd - People Gonna Talk About You
TTITLE12=Don Revel and The Primettes - Return Of Stagger Lee
TTITLE13=Al Garner - I'll Get Along Without You
TTITLE14=Joe Stubbs - What's My Destiny
TTITLE15=The Minor Chords - Let Her Go Now
EXTD=
EXTT0=
EXTT1=
EXTT2=
EXTT3=
EXTT4=
EXTT5=
EXTT6=
EXTT7=
EXTT8=
EXTT9=
EXTT10=
EXTT11=
EXTT12=
EXTT13=
EXTT14=
EXTT15=
PLAYORDER=
